<svg width="131" height="216" fill="none" xmlns="http://www.w3.org/2000/svg"><path d="M39.292 74.393C16.333 54.1 29.919 13.513 44.57 5.5c18.728-10.258 88.294-1.336 84.261 10.378-3.139 9.119-49.218.513-59.034 0 7.931 2.431 59.4 3.904 56.833 14.71-3.138 13.246-33.286 1.173-59.034-.59 16.699 3.647 56.407 4.246 54.642 15.01-1.885 11.473-39.879 0-55.11.36 8.477 3.022 49.72 4.246 47.886 14.059-2.2 11.773-42.744-1.79-46.787 2.945-3.436 4.025-13.108 26.013-28.936 12.03v-.008Z" fill="#E7D2FF"/><path d="M49.954 80c-3.671 0-7.42-1.643-11.151-4.902-9.718-8.484-14.14-21.43-12.45-36.45 1.69-14.979 9.256-29.28 17.991-34.004C61.26-4.5 116.942 1.08 128.555 10.825c2.698 2.26 2.681 4.403 2.194 5.8-1.169 3.353-6.267 4.767-13.756 5.038 5.328 1.44 9.154 3.209 10.802 5.537.837 1.177 1.11 2.506.794 3.844-1.042 4.352-4.44 6.342-9.367 6.943 1.708.872 3.048 1.863 3.902 2.997.974 1.287 1.341 2.71 1.085 4.225-.854 5.14-7.011 6.486-15.336 6.207 3.432 1.177 5.917 2.582 7.207 4.352.828 1.134 1.135 2.43.888 3.725-1.58 8.34-17.19 6.215-30.962 4.352-6.02-.813-15.106-2.049-16.207-.779-.47.542-1.145 1.575-1.93 2.769-3.185 4.86-8.513 12.997-16.267 14.055-.555.076-1.101.11-1.656.11h.008ZM73.3 2.815c-11.57 0-21.962 1.287-27.58 4.327-7.848 4.242-14.944 17.916-16.507 31.819-.922 8.145-.649 23.394 11.485 33.995 3.646 3.183 7.181 4.563 10.52 4.106 6.455-.88 11.331-8.331 14.252-12.785.87-1.33 1.562-2.388 2.16-3.074 2.024-2.345 7.83-1.676 18.777-.194 11.254 1.524 26.675 3.615 27.743-2.05.102-.541-.026-1.024-.393-1.532-3.194-4.377-20.39-6.672-31.765-8.196-6.523-.872-12.15-1.617-14.849-2.574a1.425 1.425 0 0 1-.94-1.566 1.438 1.438 0 0 1 1.384-1.203c5.072-.11 12.433 1 20.229 2.185 13.722 2.083 32.516 4.936 33.558-1.346.119-.745-.052-1.397-.547-2.05-1.528-2.014-5.499-3.555-10.631-4.783-5.208-.5-11.16-1.592-17.41-2.743-.983-.178-1.973-.364-2.964-.542-1.366-.17-2.706-.33-4.021-.483-6.84-.821-13.304-1.592-18.009-2.608a1.433 1.433 0 0 1-1.118-1.591 1.43 1.43 0 0 1 1.52-1.22c7.275.491 14.746 1.761 22.055 3.09 7.386.907 14.662 1.889 20.571 3.311 8.086.754 13.867-.067 14.985-4.733.128-.55.026-1.024-.341-1.54-3.74-5.259-27.111-7.79-41.08-9.297-6.823-.737-12.212-1.321-14.508-2.015a1.433 1.433 0 0 1-1-1.61 1.439 1.439 0 0 1 1.486-1.176c2.203.11 6.072.61 10.956 1.228 13.363 1.701 44.641 5.68 46.716-.271.102-.297.418-1.211-1.341-2.693C119.734 7.16 94.527 2.815 73.291 2.815h.009Z" fill="#000"/><path fill-rule="evenodd" clip-rule="evenodd" d="M57.893 215.521C-50.89 226.802 27.013 35 27.013 35h.008C43.181 93.731 68.132 68.585 72 64.21v145.871c-3.839 2.958-8.497 4.858-14.107 5.44Z" fill="#000"/></svg>